M48
;Layer_Color=9474304
;FILE_FORMAT=2:4
INCH,TZ
;TYPE=PLATED
T1F00S00C0.0320
T2F00S00C0.0350
T3F00S00C0.0354
T4F00S00C0.0360
T5F00S00C0.0440
T6F00S00C0.0985
;TYPE=NON_PLATED
T7F00S00C0.1150
%
T01
X40580Y24920
X42580
X42600Y27090
X40600
X40720Y35210
X42720
X40050Y37630
X38050
X34590Y36850
X32590
T02
X31900Y25750
X32900
X33900
X34900
X35900
X30950
X29900
X28900
X27850
X26900
X25900
X24900
X23900
X22900
X21900
Y34750
X22900
X23900
X24850
X25900
X26900
X27950
X28900
X29900
X30900
X31900
X32900
X33900
X34900
X35900
T03
X47250Y30830
X45580Y30850
Y31850
Y32850
Y33850
X47250Y33830
Y32830
Y31830
T04
X31500Y21880
X35500
X37810
X38050Y23600
X34050
X41810Y21880
X43450Y28800
Y30310
X39450
Y28800
X39390Y31770
X39380Y33190
X43380
X43390Y31770
X42700Y36820
X46700
X35390Y39140
X31390
T05
X47810Y22940
Y23940
Y24940
Y25940
Y26940
Y27940
Y28940
X44810
Y27940
Y26940
Y25940
Y24940
Y23940
Y22940
T06
X23050Y24010
T07
X37500Y26150
X20300
Y34350
X37500
M30
