G04*
G04 #@! TF.GenerationSoftware,Altium Limited,Altium Designer,20.1.8 (145)*
G04*
G04 Layer_Physical_Order=2*
G04 Layer_Color=16711680*
%FSLAX24Y24*%
%MOIN*%
G70*
G04*
G04 #@! TF.SameCoordinates,B3232913-15E1-4B12-B740-CA31B9D3C741*
G04*
G04*
G04 #@! TF.FilePolarity,Positive*
G04*
G01*
G75*
%ADD10C,0.0310*%
%ADD12O,0.1150X0.1000*%
%ADD13C,0.0690*%
%ADD14R,0.0690X0.0690*%
%ADD15C,0.1150*%
%ADD16C,0.1000*%
%ADD17C,0.0620*%
%ADD18C,0.0591*%
%ADD19R,0.0591X0.0591*%
%ADD20R,0.0660X0.0660*%
%ADD21C,0.0660*%
G36*
X31305Y40232D02*
X40525D01*
X42315Y38442D01*
X46795D01*
Y38342D01*
X49415Y35722D01*
Y22092D01*
X47415Y20092D01*
X31475Y20092D01*
X29725Y21842D01*
X18875D01*
Y36398D01*
X28045Y36398D01*
X29375Y37457D01*
Y38402D01*
X29415D01*
X31275Y40262D01*
X31305Y40232D01*
D02*
G37*
%LPC*%
G36*
X31390Y39743D02*
X31272Y39731D01*
X31159Y39697D01*
X31055Y39641D01*
X30964Y39566D01*
X30889Y39475D01*
X30833Y39371D01*
X30799Y39258D01*
X30787Y39140D01*
X30799Y39022D01*
X30833Y38909D01*
X30889Y38805D01*
X30964Y38714D01*
X31055Y38639D01*
X31159Y38583D01*
X31272Y38549D01*
X31390Y38537D01*
X31508Y38549D01*
X31621Y38583D01*
X31725Y38639D01*
X31816Y38714D01*
X31891Y38805D01*
X31947Y38909D01*
X31981Y39022D01*
X31993Y39140D01*
X31981Y39258D01*
X31947Y39371D01*
X31891Y39475D01*
X31816Y39566D01*
X31725Y39641D01*
X31621Y39697D01*
X31508Y39731D01*
X31390Y39743D01*
D02*
G37*
G36*
X40050Y38044D02*
X39943Y38029D01*
X39843Y37988D01*
X39758Y37922D01*
X39692Y37837D01*
X39651Y37737D01*
X39636Y37630D01*
X39651Y37523D01*
X39692Y37423D01*
X39758Y37338D01*
X39843Y37272D01*
X39943Y37231D01*
X40050Y37216D01*
X40157Y37231D01*
X40257Y37272D01*
X40342Y37338D01*
X40408Y37423D01*
X40449Y37523D01*
X40464Y37630D01*
X40449Y37737D01*
X40408Y37837D01*
X40342Y37922D01*
X40257Y37988D01*
X40157Y38029D01*
X40050Y38044D01*
D02*
G37*
G36*
X38050D02*
X37943Y38029D01*
X37843Y37988D01*
X37758Y37922D01*
X37692Y37837D01*
X37651Y37737D01*
X37636Y37630D01*
X37651Y37523D01*
X37692Y37423D01*
X37758Y37338D01*
X37843Y37272D01*
X37943Y37231D01*
X38050Y37216D01*
X38157Y37231D01*
X38257Y37272D01*
X38342Y37338D01*
X38408Y37423D01*
X38449Y37523D01*
X38464Y37630D01*
X38449Y37737D01*
X38408Y37837D01*
X38342Y37922D01*
X38257Y37988D01*
X38157Y38029D01*
X38050Y38044D01*
D02*
G37*
G36*
X34590Y37264D02*
X34483Y37249D01*
X34383Y37208D01*
X34298Y37142D01*
X34232Y37057D01*
X34191Y36957D01*
X34176Y36850D01*
X34191Y36743D01*
X34232Y36643D01*
X34298Y36558D01*
X34383Y36492D01*
X34483Y36451D01*
X34590Y36436D01*
X34697Y36451D01*
X34797Y36492D01*
X34882Y36558D01*
X34948Y36643D01*
X34989Y36743D01*
X35004Y36850D01*
X34989Y36957D01*
X34948Y37057D01*
X34882Y37142D01*
X34797Y37208D01*
X34697Y37249D01*
X34590Y37264D01*
D02*
G37*
G36*
X32590D02*
X32483Y37249D01*
X32383Y37208D01*
X32298Y37142D01*
X32232Y37057D01*
X32191Y36957D01*
X32176Y36850D01*
X32191Y36743D01*
X32232Y36643D01*
X32298Y36558D01*
X32383Y36492D01*
X32483Y36451D01*
X32590Y36436D01*
X32697Y36451D01*
X32797Y36492D01*
X32882Y36558D01*
X32948Y36643D01*
X32989Y36743D01*
X33004Y36850D01*
X32989Y36957D01*
X32948Y37057D01*
X32882Y37142D01*
X32797Y37208D01*
X32697Y37249D01*
X32590Y37264D01*
D02*
G37*
G36*
X42700Y37423D02*
X42582Y37411D01*
X42469Y37377D01*
X42365Y37321D01*
X42274Y37246D01*
X42199Y37155D01*
X42143Y37051D01*
X42109Y36938D01*
X42097Y36820D01*
X42109Y36702D01*
X42143Y36589D01*
X42199Y36485D01*
X42274Y36394D01*
X42365Y36319D01*
X42469Y36263D01*
X42582Y36229D01*
X42700Y36217D01*
X42818Y36229D01*
X42931Y36263D01*
X43035Y36319D01*
X43126Y36394D01*
X43201Y36485D01*
X43257Y36589D01*
X43291Y36702D01*
X43303Y36820D01*
X43291Y36938D01*
X43257Y37051D01*
X43201Y37155D01*
X43126Y37246D01*
X43035Y37321D01*
X42931Y37377D01*
X42818Y37411D01*
X42700Y37423D01*
D02*
G37*
G36*
X24850Y35199D02*
X24734Y35184D01*
X24626Y35139D01*
X24533Y35067D01*
X24461Y34974D01*
X24440Y34923D01*
X24310D01*
X24289Y34974D01*
X24217Y35067D01*
X24124Y35139D01*
X24016Y35184D01*
X23900Y35199D01*
X23784Y35184D01*
X23676Y35139D01*
X23583Y35067D01*
X23511Y34974D01*
X23466Y34866D01*
X23461Y34821D01*
X23339D01*
X23334Y34866D01*
X23289Y34974D01*
X23217Y35067D01*
X23124Y35139D01*
X23016Y35184D01*
X22900Y35199D01*
X22784Y35184D01*
X22676Y35139D01*
X22583Y35067D01*
X22511Y34974D01*
X22466Y34866D01*
X22461Y34821D01*
X22339D01*
X22334Y34866D01*
X22289Y34974D01*
X22217Y35067D01*
X22124Y35139D01*
X22016Y35184D01*
X21900Y35199D01*
X21784Y35184D01*
X21676Y35139D01*
X21583Y35067D01*
X21511Y34974D01*
X21466Y34866D01*
X21451Y34750D01*
X21466Y34634D01*
X21511Y34526D01*
X21583Y34433D01*
X21676Y34361D01*
X21784Y34316D01*
X21900Y34301D01*
X22016Y34316D01*
X22124Y34361D01*
X22217Y34433D01*
X22289Y34526D01*
X22334Y34634D01*
X22339Y34679D01*
X22461D01*
X22466Y34634D01*
X22511Y34526D01*
X22583Y34433D01*
X22676Y34361D01*
X22784Y34316D01*
X22900Y34301D01*
X23016Y34316D01*
X23124Y34361D01*
X23217Y34433D01*
X23289Y34526D01*
X23334Y34634D01*
X23339Y34679D01*
X23461D01*
X23466Y34634D01*
X23511Y34526D01*
X23583Y34433D01*
X23676Y34361D01*
X23784Y34316D01*
X23900Y34301D01*
X24016Y34316D01*
X24124Y34361D01*
X24217Y34433D01*
X24289Y34526D01*
X24310Y34577D01*
X24440D01*
X24461Y34526D01*
X24533Y34433D01*
X24626Y34361D01*
X24734Y34316D01*
X24850Y34301D01*
X24966Y34316D01*
X25074Y34361D01*
X25167Y34433D01*
X25239Y34526D01*
X25284Y34634D01*
X25299Y34750D01*
X25284Y34866D01*
X25239Y34974D01*
X25167Y35067D01*
X25074Y35139D01*
X24966Y35184D01*
X24850Y35199D01*
D02*
G37*
G36*
X33900D02*
X33784Y35184D01*
X33676Y35139D01*
X33583Y35067D01*
X33511Y34974D01*
X33466Y34866D01*
X33461Y34821D01*
X33339D01*
X33334Y34866D01*
X33289Y34974D01*
X33217Y35067D01*
X33124Y35139D01*
X33016Y35184D01*
X32900Y35199D01*
X32784Y35184D01*
X32676Y35139D01*
X32583Y35067D01*
X32511Y34974D01*
X32466Y34866D01*
X32461Y34821D01*
X32339D01*
X32334Y34866D01*
X32289Y34974D01*
X32217Y35067D01*
X32124Y35139D01*
X32016Y35184D01*
X31900Y35199D01*
X31784Y35184D01*
X31676Y35139D01*
X31583Y35067D01*
X31511Y34974D01*
X31466Y34866D01*
X31461Y34821D01*
X31339D01*
X31334Y34866D01*
X31289Y34974D01*
X31217Y35067D01*
X31124Y35139D01*
X31016Y35184D01*
X30900Y35199D01*
X30784Y35184D01*
X30676Y35139D01*
X30583Y35067D01*
X30511Y34974D01*
X30466Y34866D01*
X30461Y34821D01*
X30339D01*
X30334Y34866D01*
X30289Y34974D01*
X30217Y35067D01*
X30124Y35139D01*
X30016Y35184D01*
X29900Y35199D01*
X29784Y35184D01*
X29676Y35139D01*
X29583Y35067D01*
X29511Y34974D01*
X29466Y34866D01*
X29461Y34821D01*
X29339D01*
X29334Y34866D01*
X29289Y34974D01*
X29217Y35067D01*
X29124Y35139D01*
X29016Y35184D01*
X28900Y35199D01*
X28784Y35184D01*
X28676Y35139D01*
X28583Y35067D01*
X28511Y34974D01*
X28466Y34866D01*
X28451Y34750D01*
X28466Y34634D01*
X28511Y34526D01*
X28583Y34433D01*
X28676Y34361D01*
X28784Y34316D01*
X28900Y34301D01*
X29016Y34316D01*
X29124Y34361D01*
X29217Y34433D01*
X29289Y34526D01*
X29334Y34634D01*
X29339Y34679D01*
X29461D01*
X29466Y34634D01*
X29511Y34526D01*
X29583Y34433D01*
X29676Y34361D01*
X29784Y34316D01*
X29900Y34301D01*
X30016Y34316D01*
X30124Y34361D01*
X30217Y34433D01*
X30289Y34526D01*
X30334Y34634D01*
X30339Y34679D01*
X30461D01*
X30466Y34634D01*
X30511Y34526D01*
X30583Y34433D01*
X30676Y34361D01*
X30784Y34316D01*
X30900Y34301D01*
X31016Y34316D01*
X31124Y34361D01*
X31217Y34433D01*
X31289Y34526D01*
X31334Y34634D01*
X31339Y34679D01*
X31461D01*
X31466Y34634D01*
X31511Y34526D01*
X31583Y34433D01*
X31676Y34361D01*
X31784Y34316D01*
X31900Y34301D01*
X32016Y34316D01*
X32124Y34361D01*
X32217Y34433D01*
X32289Y34526D01*
X32334Y34634D01*
X32339Y34679D01*
X32461D01*
X32466Y34634D01*
X32511Y34526D01*
X32583Y34433D01*
X32676Y34361D01*
X32784Y34316D01*
X32900Y34301D01*
X33016Y34316D01*
X33124Y34361D01*
X33217Y34433D01*
X33289Y34526D01*
X33334Y34634D01*
X33339Y34679D01*
X33461D01*
X33466Y34634D01*
X33511Y34526D01*
X33583Y34433D01*
X33676Y34361D01*
X33784Y34316D01*
X33900Y34301D01*
X34016Y34316D01*
X34124Y34361D01*
X34217Y34433D01*
X34289Y34526D01*
X34334Y34634D01*
X34349Y34750D01*
X34334Y34866D01*
X34289Y34974D01*
X34217Y35067D01*
X34124Y35139D01*
X34016Y35184D01*
X33900Y35199D01*
D02*
G37*
G36*
X26900D02*
X26784Y35184D01*
X26676Y35139D01*
X26583Y35067D01*
X26511Y34974D01*
X26466Y34866D01*
X26461Y34821D01*
X26339D01*
X26334Y34866D01*
X26289Y34974D01*
X26217Y35067D01*
X26124Y35139D01*
X26016Y35184D01*
X25900Y35199D01*
X25784Y35184D01*
X25676Y35139D01*
X25583Y35067D01*
X25511Y34974D01*
X25466Y34866D01*
X25451Y34750D01*
X25466Y34634D01*
X25511Y34526D01*
X25583Y34433D01*
X25676Y34361D01*
X25784Y34316D01*
X25900Y34301D01*
X26016Y34316D01*
X26124Y34361D01*
X26217Y34433D01*
X26289Y34526D01*
X26334Y34634D01*
X26339Y34679D01*
X26461D01*
X26466Y34634D01*
X26511Y34526D01*
X26583Y34433D01*
X26676Y34361D01*
X26784Y34316D01*
X26900Y34301D01*
X27016Y34316D01*
X27124Y34361D01*
X27217Y34433D01*
X27289Y34526D01*
X27334Y34634D01*
X27349Y34750D01*
X27334Y34866D01*
X27289Y34974D01*
X27217Y35067D01*
X27124Y35139D01*
X27016Y35184D01*
X26900Y35199D01*
D02*
G37*
G36*
X42720Y35624D02*
X42613Y35609D01*
X42513Y35568D01*
X42428Y35502D01*
X42362Y35417D01*
X42321Y35317D01*
X42306Y35210D01*
X42321Y35103D01*
X42362Y35003D01*
X42428Y34918D01*
X42513Y34852D01*
X42613Y34811D01*
X42720Y34796D01*
X42827Y34811D01*
X42927Y34852D01*
X43012Y34918D01*
X43078Y35003D01*
X43119Y35103D01*
X43134Y35210D01*
X43119Y35317D01*
X43078Y35417D01*
X43012Y35502D01*
X42927Y35568D01*
X42827Y35609D01*
X42720Y35624D01*
D02*
G37*
G36*
X40720D02*
X40613Y35609D01*
X40513Y35568D01*
X40428Y35502D01*
X40362Y35417D01*
X40321Y35317D01*
X40306Y35210D01*
X40321Y35103D01*
X40362Y35003D01*
X40428Y34918D01*
X40513Y34852D01*
X40613Y34811D01*
X40720Y34796D01*
X40827Y34811D01*
X40927Y34852D01*
X41012Y34918D01*
X41078Y35003D01*
X41119Y35103D01*
X41134Y35210D01*
X41119Y35317D01*
X41078Y35417D01*
X41012Y35502D01*
X40927Y35568D01*
X40827Y35609D01*
X40720Y35624D01*
D02*
G37*
G36*
X35390Y39743D02*
X35272Y39731D01*
X35159Y39697D01*
X35055Y39641D01*
X34964Y39566D01*
X34889Y39475D01*
X34833Y39371D01*
X34799Y39258D01*
X34787Y39140D01*
X34799Y39022D01*
X34833Y38909D01*
X34889Y38805D01*
X34964Y38714D01*
X35055Y38639D01*
X35130Y38599D01*
Y36109D01*
X35150Y36009D01*
X35206Y35925D01*
X35821Y35310D01*
X35784Y35184D01*
X35676Y35139D01*
X35583Y35067D01*
X35511Y34974D01*
X35466Y34866D01*
X35451Y34750D01*
X35466Y34634D01*
X35467Y34634D01*
X31716Y30883D01*
X31660Y30799D01*
X31640Y30699D01*
Y26111D01*
X31583Y26067D01*
X31511Y25974D01*
X31466Y25866D01*
X31451Y25750D01*
X31466Y25634D01*
X31511Y25526D01*
X31583Y25433D01*
X31676Y25361D01*
X31784Y25316D01*
X31900Y25301D01*
X32016Y25316D01*
X32124Y25361D01*
X32217Y25433D01*
X32289Y25526D01*
X32334Y25634D01*
X32339Y25679D01*
X32461D01*
X32466Y25634D01*
X32511Y25526D01*
X32583Y25433D01*
X32676Y25361D01*
X32784Y25316D01*
X32900Y25301D01*
X33016Y25316D01*
X33124Y25361D01*
X33217Y25433D01*
X33289Y25526D01*
X33334Y25634D01*
X33339Y25679D01*
X33461D01*
X33466Y25634D01*
X33511Y25526D01*
X33583Y25433D01*
X33676Y25361D01*
X33784Y25316D01*
X33900Y25301D01*
X34016Y25316D01*
X34124Y25361D01*
X34217Y25433D01*
X34289Y25526D01*
X34334Y25634D01*
X34349Y25750D01*
X34334Y25866D01*
X34289Y25974D01*
X34217Y26067D01*
X34124Y26139D01*
X34016Y26184D01*
X33900Y26199D01*
X33784Y26184D01*
X33676Y26139D01*
X33583Y26067D01*
X33511Y25974D01*
X33466Y25866D01*
X33461Y25821D01*
X33339D01*
X33334Y25866D01*
X33289Y25974D01*
X33217Y26067D01*
X33124Y26139D01*
X33016Y26184D01*
X32900Y26199D01*
X32784Y26184D01*
X32676Y26139D01*
X32583Y26067D01*
X32511Y25974D01*
X32466Y25866D01*
X32461Y25821D01*
X32339D01*
X32334Y25866D01*
X32289Y25974D01*
X32217Y26067D01*
X32160Y26111D01*
Y30592D01*
X35873Y34305D01*
X35900Y34301D01*
X36016Y34316D01*
X36124Y34361D01*
X36217Y34433D01*
X36280Y34514D01*
X36318Y34514D01*
X36400Y34481D01*
Y26019D01*
X36318Y25986D01*
X36280Y25986D01*
X36217Y26067D01*
X36124Y26139D01*
X36016Y26184D01*
X35900Y26199D01*
X35784Y26184D01*
X35676Y26139D01*
X35583Y26067D01*
X35511Y25974D01*
X35466Y25866D01*
X35451Y25750D01*
X35466Y25634D01*
X35511Y25526D01*
X35583Y25433D01*
X35676Y25361D01*
X35784Y25316D01*
X35900Y25301D01*
X36016Y25316D01*
X36124Y25361D01*
X36217Y25433D01*
X36280Y25514D01*
X36318Y25514D01*
X36400Y25481D01*
Y24990D01*
X36420Y24890D01*
X36476Y24806D01*
X37483Y23799D01*
X37459Y23718D01*
X37447Y23600D01*
X37459Y23482D01*
X37493Y23369D01*
X37549Y23265D01*
X37624Y23174D01*
X37715Y23099D01*
X37819Y23043D01*
X37932Y23009D01*
X38050Y22997D01*
X38168Y23009D01*
X38281Y23043D01*
X38385Y23099D01*
X38476Y23174D01*
X38551Y23265D01*
X38607Y23369D01*
X38641Y23482D01*
X38653Y23600D01*
X38641Y23718D01*
X38617Y23799D01*
X38854Y24036D01*
X41956D01*
X42056Y24056D01*
X42140Y24113D01*
X42539Y24512D01*
X42580Y24506D01*
X42687Y24521D01*
X42787Y24562D01*
X42872Y24628D01*
X42938Y24713D01*
X42979Y24813D01*
X42994Y24920D01*
X42979Y25027D01*
X42938Y25127D01*
X42872Y25212D01*
X42787Y25278D01*
X42687Y25319D01*
X42580Y25334D01*
X42473Y25319D01*
X42373Y25278D01*
X42288Y25212D01*
X42222Y25127D01*
X42181Y25027D01*
X42166Y24920D01*
X42172Y24879D01*
X41849Y24556D01*
X40969D01*
X40910Y24676D01*
X40938Y24713D01*
X40979Y24813D01*
X40994Y24920D01*
X40979Y25027D01*
X40938Y25127D01*
X40872Y25212D01*
X40787Y25278D01*
X40687Y25319D01*
X40580Y25334D01*
X40473Y25319D01*
X40373Y25278D01*
X40288Y25212D01*
X40222Y25127D01*
X40181Y25027D01*
X40166Y24920D01*
X40181Y24813D01*
X40222Y24713D01*
X40250Y24676D01*
X40191Y24556D01*
X38746D01*
X38647Y24537D01*
X38563Y24480D01*
X38249Y24167D01*
X38168Y24191D01*
X38050Y24203D01*
X37932Y24191D01*
X37851Y24167D01*
X36920Y25098D01*
Y25588D01*
X36951Y25612D01*
X37040Y25641D01*
X37118Y25578D01*
X37237Y25514D01*
X37366Y25475D01*
X37500Y25462D01*
X37634Y25475D01*
X37763Y25514D01*
X37882Y25578D01*
X37987Y25663D01*
X38072Y25768D01*
X38136Y25887D01*
X38175Y26016D01*
X38188Y26150D01*
X38175Y26284D01*
X38136Y26413D01*
X38072Y26532D01*
X37987Y26637D01*
X37882Y26722D01*
X37763Y26786D01*
X37634Y26825D01*
X37500Y26838D01*
X37366Y26825D01*
X37237Y26786D01*
X37118Y26722D01*
X37040Y26659D01*
X36951Y26688D01*
X36920Y26712D01*
Y33788D01*
X36951Y33812D01*
X37040Y33841D01*
X37118Y33778D01*
X37237Y33714D01*
X37366Y33675D01*
X37500Y33662D01*
X37634Y33675D01*
X37763Y33714D01*
X37882Y33778D01*
X37987Y33863D01*
X38072Y33968D01*
X38136Y34087D01*
X38175Y34216D01*
X38188Y34350D01*
X38175Y34484D01*
X38136Y34613D01*
X38072Y34732D01*
X37987Y34837D01*
X37882Y34922D01*
X37763Y34986D01*
X37634Y35025D01*
X37500Y35038D01*
X37366Y35025D01*
X37237Y34986D01*
X37118Y34922D01*
X37036Y34856D01*
X36950Y34873D01*
X36908Y34898D01*
X36900Y34938D01*
X36844Y35022D01*
X35650Y36216D01*
Y38599D01*
X35725Y38639D01*
X35816Y38714D01*
X35891Y38805D01*
X35947Y38909D01*
X35981Y39022D01*
X35993Y39140D01*
X35981Y39258D01*
X35947Y39371D01*
X35891Y39475D01*
X35816Y39566D01*
X35725Y39641D01*
X35621Y39697D01*
X35508Y39731D01*
X35390Y39743D01*
D02*
G37*
G36*
X20300Y35038D02*
X20166Y35025D01*
X20037Y34986D01*
X19918Y34922D01*
X19813Y34837D01*
X19728Y34732D01*
X19664Y34613D01*
X19625Y34484D01*
X19612Y34350D01*
X19625Y34216D01*
X19664Y34087D01*
X19728Y33968D01*
X19813Y33863D01*
X19918Y33778D01*
X20037Y33714D01*
X20166Y33675D01*
X20300Y33662D01*
X20434Y33675D01*
X20563Y33714D01*
X20682Y33778D01*
X20787Y33863D01*
X20872Y33968D01*
X20936Y34087D01*
X20975Y34216D01*
X20988Y34350D01*
X20975Y34484D01*
X20936Y34613D01*
X20872Y34732D01*
X20787Y34837D01*
X20682Y34922D01*
X20563Y34986D01*
X20434Y35025D01*
X20300Y35038D01*
D02*
G37*
G36*
X45580Y34249D02*
X45477Y34235D01*
X45381Y34195D01*
X45298Y34132D01*
X45235Y34049D01*
X45195Y33953D01*
X45181Y33850D01*
X45195Y33747D01*
X45235Y33651D01*
X45298Y33568D01*
X45381Y33505D01*
X45477Y33465D01*
X45580Y33451D01*
X45683Y33465D01*
X45779Y33505D01*
X45862Y33568D01*
X45925Y33651D01*
X45965Y33747D01*
X45979Y33850D01*
X45965Y33953D01*
X45925Y34049D01*
X45862Y34132D01*
X45779Y34195D01*
X45683Y34235D01*
X45580Y34249D01*
D02*
G37*
G36*
X46700Y37423D02*
X46582Y37411D01*
X46469Y37377D01*
X46365Y37321D01*
X46274Y37246D01*
X46199Y37155D01*
X46143Y37051D01*
X46109Y36938D01*
X46097Y36820D01*
X46109Y36702D01*
X46143Y36589D01*
X46199Y36485D01*
X46274Y36394D01*
X46365Y36319D01*
X46469Y36263D01*
X46582Y36229D01*
X46700Y36217D01*
X46744Y36221D01*
X46990Y35976D01*
Y34129D01*
X46968Y34112D01*
X46905Y34029D01*
X46865Y33933D01*
X46851Y33830D01*
X46865Y33727D01*
X46905Y33631D01*
X46968Y33548D01*
X47051Y33485D01*
X47147Y33445D01*
X47250Y33431D01*
X47353Y33445D01*
X47449Y33485D01*
X47532Y33548D01*
X47595Y33631D01*
X47635Y33727D01*
X47649Y33830D01*
X47635Y33933D01*
X47595Y34029D01*
X47532Y34112D01*
X47510Y34129D01*
Y36083D01*
X47490Y36183D01*
X47434Y36267D01*
X47206Y36495D01*
X47257Y36589D01*
X47291Y36702D01*
X47303Y36820D01*
X47291Y36938D01*
X47257Y37051D01*
X47201Y37155D01*
X47126Y37246D01*
X47035Y37321D01*
X46931Y37377D01*
X46818Y37411D01*
X46700Y37423D01*
D02*
G37*
G36*
X43380Y33793D02*
X43262Y33781D01*
X43149Y33747D01*
X43045Y33691D01*
X42954Y33616D01*
X42879Y33525D01*
X42823Y33421D01*
X42789Y33308D01*
X42777Y33190D01*
X42789Y33072D01*
X42823Y32959D01*
X42879Y32855D01*
X42954Y32764D01*
X43045Y32689D01*
X43149Y32633D01*
X43262Y32599D01*
X43380Y32587D01*
X43498Y32599D01*
X43611Y32633D01*
X43715Y32689D01*
X43806Y32764D01*
X43881Y32855D01*
X43937Y32959D01*
X43971Y33072D01*
X43983Y33190D01*
X43971Y33308D01*
X43937Y33421D01*
X43881Y33525D01*
X43806Y33616D01*
X43715Y33691D01*
X43611Y33747D01*
X43498Y33781D01*
X43380Y33793D01*
D02*
G37*
G36*
X39380D02*
X39262Y33781D01*
X39149Y33747D01*
X39045Y33691D01*
X38954Y33616D01*
X38879Y33525D01*
X38823Y33421D01*
X38789Y33308D01*
X38777Y33190D01*
X38789Y33072D01*
X38823Y32959D01*
X38879Y32855D01*
X38954Y32764D01*
X39045Y32689D01*
X39149Y32633D01*
X39262Y32599D01*
X39380Y32587D01*
X39498Y32599D01*
X39611Y32633D01*
X39715Y32689D01*
X39806Y32764D01*
X39881Y32855D01*
X39937Y32959D01*
X39971Y33072D01*
X39983Y33190D01*
X39971Y33308D01*
X39937Y33421D01*
X39881Y33525D01*
X39806Y33616D01*
X39715Y33691D01*
X39611Y33747D01*
X39498Y33781D01*
X39380Y33793D01*
D02*
G37*
G36*
X45580Y32249D02*
X45477Y32235D01*
X45381Y32195D01*
X45298Y32132D01*
X45235Y32049D01*
X45195Y31953D01*
X45181Y31850D01*
X45195Y31747D01*
X45235Y31651D01*
X45298Y31568D01*
X45381Y31505D01*
X45477Y31465D01*
X45580Y31451D01*
X45683Y31465D01*
X45779Y31505D01*
X45862Y31568D01*
X45925Y31651D01*
X45965Y31747D01*
X45979Y31850D01*
X45965Y31953D01*
X45925Y32049D01*
X45862Y32132D01*
X45779Y32195D01*
X45683Y32235D01*
X45580Y32249D01*
D02*
G37*
G36*
X47250Y32229D02*
X47147Y32215D01*
X47051Y32175D01*
X46968Y32112D01*
X46905Y32029D01*
X46865Y31933D01*
X46851Y31830D01*
X46865Y31727D01*
X46905Y31631D01*
X46968Y31548D01*
X47051Y31485D01*
X47147Y31445D01*
X47250Y31431D01*
X47353Y31445D01*
X47449Y31485D01*
X47532Y31548D01*
X47595Y31631D01*
X47635Y31727D01*
X47649Y31830D01*
X47635Y31933D01*
X47595Y32029D01*
X47532Y32112D01*
X47449Y32175D01*
X47353Y32215D01*
X47250Y32229D01*
D02*
G37*
G36*
X43390Y32373D02*
X43272Y32361D01*
X43159Y32327D01*
X43055Y32271D01*
X42964Y32196D01*
X42889Y32105D01*
X42833Y32001D01*
X42799Y31888D01*
X42787Y31770D01*
X42799Y31652D01*
X42833Y31539D01*
X42889Y31435D01*
X42964Y31344D01*
X43055Y31269D01*
X43159Y31213D01*
X43272Y31179D01*
X43390Y31167D01*
X43508Y31179D01*
X43621Y31213D01*
X43725Y31269D01*
X43816Y31344D01*
X43891Y31435D01*
X43947Y31539D01*
X43981Y31652D01*
X43993Y31770D01*
X43981Y31888D01*
X43947Y32001D01*
X43891Y32105D01*
X43816Y32196D01*
X43725Y32271D01*
X43621Y32327D01*
X43508Y32361D01*
X43390Y32373D01*
D02*
G37*
G36*
X39390D02*
X39272Y32361D01*
X39159Y32327D01*
X39055Y32271D01*
X38964Y32196D01*
X38889Y32105D01*
X38833Y32001D01*
X38799Y31888D01*
X38787Y31770D01*
X38799Y31652D01*
X38833Y31539D01*
X38889Y31435D01*
X38964Y31344D01*
X39055Y31269D01*
X39159Y31213D01*
X39272Y31179D01*
X39390Y31167D01*
X39508Y31179D01*
X39621Y31213D01*
X39725Y31269D01*
X39816Y31344D01*
X39891Y31435D01*
X39947Y31539D01*
X39981Y31652D01*
X39993Y31770D01*
X39981Y31888D01*
X39947Y32001D01*
X39891Y32105D01*
X39816Y32196D01*
X39725Y32271D01*
X39621Y32327D01*
X39508Y32361D01*
X39390Y32373D01*
D02*
G37*
G36*
X45975Y31245D02*
X45185D01*
Y30455D01*
X45975D01*
Y31245D01*
D02*
G37*
G36*
X47645Y31225D02*
X46855D01*
Y30435D01*
X47645D01*
Y31225D01*
D02*
G37*
G36*
X43450Y30913D02*
X43332Y30901D01*
X43219Y30867D01*
X43115Y30811D01*
X43024Y30736D01*
X42949Y30645D01*
X42893Y30541D01*
X42859Y30428D01*
X42847Y30310D01*
X42859Y30192D01*
X42893Y30079D01*
X42949Y29975D01*
X43024Y29884D01*
X43115Y29809D01*
X43219Y29753D01*
X43332Y29719D01*
X43450Y29707D01*
X43568Y29719D01*
X43681Y29753D01*
X43785Y29809D01*
X43876Y29884D01*
X43951Y29975D01*
X44007Y30079D01*
X44041Y30192D01*
X44053Y30310D01*
X44041Y30428D01*
X44007Y30541D01*
X43951Y30645D01*
X43876Y30736D01*
X43785Y30811D01*
X43681Y30867D01*
X43568Y30901D01*
X43450Y30913D01*
D02*
G37*
G36*
X39450D02*
X39332Y30901D01*
X39219Y30867D01*
X39115Y30811D01*
X39024Y30736D01*
X38949Y30645D01*
X38893Y30541D01*
X38859Y30428D01*
X38847Y30310D01*
X38859Y30192D01*
X38893Y30079D01*
X38949Y29975D01*
X39024Y29884D01*
X39115Y29809D01*
X39219Y29753D01*
X39332Y29719D01*
X39450Y29707D01*
X39568Y29719D01*
X39681Y29753D01*
X39785Y29809D01*
X39876Y29884D01*
X39951Y29975D01*
X40007Y30079D01*
X40041Y30192D01*
X40053Y30310D01*
X40041Y30428D01*
X40007Y30541D01*
X39951Y30645D01*
X39876Y30736D01*
X39785Y30811D01*
X39681Y30867D01*
X39568Y30901D01*
X39450Y30913D01*
D02*
G37*
G36*
X47810Y29374D02*
X47698Y29359D01*
X47593Y29316D01*
X47503Y29247D01*
X47434Y29157D01*
X47391Y29052D01*
X47376Y28940D01*
X47391Y28828D01*
X47434Y28723D01*
X47503Y28633D01*
X47593Y28564D01*
X47698Y28521D01*
X47810Y28506D01*
X47922Y28521D01*
X48027Y28564D01*
X48117Y28633D01*
X48186Y28723D01*
X48229Y28828D01*
X48244Y28940D01*
X48229Y29052D01*
X48186Y29157D01*
X48117Y29247D01*
X48027Y29316D01*
X47922Y29359D01*
X47810Y29374D01*
D02*
G37*
G36*
X44810D02*
X44698Y29359D01*
X44593Y29316D01*
X44503Y29247D01*
X44434Y29157D01*
X44391Y29052D01*
X44376Y28940D01*
X44391Y28828D01*
X44434Y28723D01*
X44503Y28633D01*
X44593Y28564D01*
X44698Y28521D01*
X44810Y28506D01*
X44922Y28521D01*
X45027Y28564D01*
X45117Y28633D01*
X45186Y28723D01*
X45229Y28828D01*
X45244Y28940D01*
X45229Y29052D01*
X45186Y29157D01*
X45117Y29247D01*
X45027Y29316D01*
X44922Y29359D01*
X44810Y29374D01*
D02*
G37*
G36*
X39450Y29403D02*
X39332Y29391D01*
X39219Y29357D01*
X39115Y29301D01*
X39024Y29226D01*
X38949Y29135D01*
X38893Y29031D01*
X38859Y28918D01*
X38847Y28800D01*
X38859Y28682D01*
X38893Y28569D01*
X38949Y28465D01*
X39024Y28374D01*
X39115Y28299D01*
X39219Y28243D01*
X39332Y28209D01*
X39450Y28197D01*
X39568Y28209D01*
X39681Y28243D01*
X39785Y28299D01*
X39876Y28374D01*
X39951Y28465D01*
X40007Y28569D01*
X40041Y28682D01*
X40053Y28800D01*
X40041Y28918D01*
X40007Y29031D01*
X39951Y29135D01*
X39876Y29226D01*
X39785Y29301D01*
X39681Y29357D01*
X39568Y29391D01*
X39450Y29403D01*
D02*
G37*
G36*
X47810Y28374D02*
X47698Y28359D01*
X47593Y28316D01*
X47503Y28247D01*
X47434Y28157D01*
X47391Y28052D01*
X47376Y27940D01*
X47391Y27828D01*
X47434Y27723D01*
X47503Y27633D01*
X47593Y27564D01*
X47698Y27521D01*
X47810Y27506D01*
X47922Y27521D01*
X48027Y27564D01*
X48117Y27633D01*
X48186Y27723D01*
X48229Y27828D01*
X48244Y27940D01*
X48229Y28052D01*
X48186Y28157D01*
X48117Y28247D01*
X48027Y28316D01*
X47922Y28359D01*
X47810Y28374D01*
D02*
G37*
G36*
X44810D02*
X44698Y28359D01*
X44593Y28316D01*
X44503Y28247D01*
X44434Y28157D01*
X44391Y28052D01*
X44376Y27940D01*
X44391Y27828D01*
X44434Y27723D01*
X44503Y27633D01*
X44593Y27564D01*
X44698Y27521D01*
X44810Y27506D01*
X44922Y27521D01*
X45027Y27564D01*
X45117Y27633D01*
X45186Y27723D01*
X45229Y27828D01*
X45244Y27940D01*
X45229Y28052D01*
X45186Y28157D01*
X45117Y28247D01*
X45027Y28316D01*
X44922Y28359D01*
X44810Y28374D01*
D02*
G37*
G36*
X42600Y27504D02*
X42493Y27489D01*
X42393Y27448D01*
X42308Y27382D01*
X42242Y27297D01*
X42201Y27197D01*
X42186Y27090D01*
X42201Y26983D01*
X42242Y26883D01*
X42308Y26798D01*
X42393Y26732D01*
X42493Y26691D01*
X42600Y26676D01*
X42707Y26691D01*
X42807Y26732D01*
X42892Y26798D01*
X42958Y26883D01*
X42999Y26983D01*
X43014Y27090D01*
X42999Y27197D01*
X42958Y27297D01*
X42892Y27382D01*
X42807Y27448D01*
X42707Y27489D01*
X42600Y27504D01*
D02*
G37*
G36*
X40600D02*
X40493Y27489D01*
X40393Y27448D01*
X40308Y27382D01*
X40242Y27297D01*
X40201Y27197D01*
X40186Y27090D01*
X40201Y26983D01*
X40242Y26883D01*
X40308Y26798D01*
X40393Y26732D01*
X40493Y26691D01*
X40600Y26676D01*
X40707Y26691D01*
X40807Y26732D01*
X40892Y26798D01*
X40958Y26883D01*
X40999Y26983D01*
X41014Y27090D01*
X40999Y27197D01*
X40958Y27297D01*
X40892Y27382D01*
X40807Y27448D01*
X40707Y27489D01*
X40600Y27504D01*
D02*
G37*
G36*
X47810Y27374D02*
X47698Y27359D01*
X47593Y27316D01*
X47503Y27247D01*
X47434Y27157D01*
X47391Y27052D01*
X47376Y26940D01*
X47391Y26828D01*
X47434Y26723D01*
X47503Y26633D01*
X47593Y26564D01*
X47698Y26521D01*
X47810Y26506D01*
X47922Y26521D01*
X48027Y26564D01*
X48117Y26633D01*
X48186Y26723D01*
X48229Y26828D01*
X48244Y26940D01*
X48229Y27052D01*
X48186Y27157D01*
X48117Y27247D01*
X48027Y27316D01*
X47922Y27359D01*
X47810Y27374D01*
D02*
G37*
G36*
X44810D02*
X44698Y27359D01*
X44593Y27316D01*
X44503Y27247D01*
X44434Y27157D01*
X44391Y27052D01*
X44376Y26940D01*
X44391Y26828D01*
X44434Y26723D01*
X44503Y26633D01*
X44593Y26564D01*
X44698Y26521D01*
X44810Y26506D01*
X44922Y26521D01*
X45027Y26564D01*
X45117Y26633D01*
X45186Y26723D01*
X45229Y26828D01*
X45244Y26940D01*
X45229Y27052D01*
X45186Y27157D01*
X45117Y27247D01*
X45027Y27316D01*
X44922Y27359D01*
X44810Y27374D01*
D02*
G37*
G36*
X27850Y26199D02*
X27734Y26184D01*
X27626Y26139D01*
X27533Y26067D01*
X27461Y25974D01*
X27440Y25923D01*
X27310D01*
X27289Y25974D01*
X27217Y26067D01*
X27124Y26139D01*
X27016Y26184D01*
X26900Y26199D01*
X26784Y26184D01*
X26676Y26139D01*
X26583Y26067D01*
X26511Y25974D01*
X26466Y25866D01*
X26461Y25821D01*
X26339D01*
X26334Y25866D01*
X26289Y25974D01*
X26217Y26067D01*
X26124Y26139D01*
X26016Y26184D01*
X25900Y26199D01*
X25784Y26184D01*
X25676Y26139D01*
X25583Y26067D01*
X25511Y25974D01*
X25466Y25866D01*
X25461Y25821D01*
X25339D01*
X25334Y25866D01*
X25289Y25974D01*
X25217Y26067D01*
X25124Y26139D01*
X25016Y26184D01*
X24900Y26199D01*
X24784Y26184D01*
X24676Y26139D01*
X24583Y26067D01*
X24511Y25974D01*
X24466Y25866D01*
X24461Y25821D01*
X24339D01*
X24334Y25866D01*
X24289Y25974D01*
X24217Y26067D01*
X24124Y26139D01*
X24016Y26184D01*
X23900Y26199D01*
X23784Y26184D01*
X23676Y26139D01*
X23583Y26067D01*
X23511Y25974D01*
X23466Y25866D01*
X23461Y25821D01*
X23339D01*
X23334Y25866D01*
X23289Y25974D01*
X23217Y26067D01*
X23124Y26139D01*
X23016Y26184D01*
X22900Y26199D01*
X22784Y26184D01*
X22676Y26139D01*
X22583Y26067D01*
X22511Y25974D01*
X22466Y25866D01*
X22461Y25821D01*
X22339D01*
X22334Y25866D01*
X22289Y25974D01*
X22217Y26067D01*
X22124Y26139D01*
X22016Y26184D01*
X21900Y26199D01*
X21784Y26184D01*
X21676Y26139D01*
X21583Y26067D01*
X21511Y25974D01*
X21466Y25866D01*
X21451Y25750D01*
X21466Y25634D01*
X21511Y25526D01*
X21583Y25433D01*
X21676Y25361D01*
X21784Y25316D01*
X21900Y25301D01*
X22016Y25316D01*
X22124Y25361D01*
X22217Y25433D01*
X22289Y25526D01*
X22334Y25634D01*
X22339Y25679D01*
X22461D01*
X22466Y25634D01*
X22511Y25526D01*
X22583Y25433D01*
X22676Y25361D01*
X22784Y25316D01*
X22900Y25301D01*
X23016Y25316D01*
X23124Y25361D01*
X23217Y25433D01*
X23289Y25526D01*
X23334Y25634D01*
X23339Y25679D01*
X23461D01*
X23466Y25634D01*
X23511Y25526D01*
X23583Y25433D01*
X23676Y25361D01*
X23784Y25316D01*
X23900Y25301D01*
X24016Y25316D01*
X24124Y25361D01*
X24217Y25433D01*
X24289Y25526D01*
X24334Y25634D01*
X24339Y25679D01*
X24461D01*
X24466Y25634D01*
X24511Y25526D01*
X24583Y25433D01*
X24676Y25361D01*
X24784Y25316D01*
X24900Y25301D01*
X25016Y25316D01*
X25124Y25361D01*
X25217Y25433D01*
X25289Y25526D01*
X25334Y25634D01*
X25339Y25679D01*
X25461D01*
X25466Y25634D01*
X25511Y25526D01*
X25583Y25433D01*
X25676Y25361D01*
X25784Y25316D01*
X25900Y25301D01*
X26016Y25316D01*
X26124Y25361D01*
X26217Y25433D01*
X26289Y25526D01*
X26334Y25634D01*
X26339Y25679D01*
X26461D01*
X26466Y25634D01*
X26511Y25526D01*
X26583Y25433D01*
X26676Y25361D01*
X26784Y25316D01*
X26900Y25301D01*
X27016Y25316D01*
X27124Y25361D01*
X27217Y25433D01*
X27289Y25526D01*
X27310Y25577D01*
X27440D01*
X27461Y25526D01*
X27533Y25433D01*
X27626Y25361D01*
X27734Y25316D01*
X27850Y25301D01*
X27966Y25316D01*
X28074Y25361D01*
X28167Y25433D01*
X28239Y25526D01*
X28284Y25634D01*
X28299Y25750D01*
X28284Y25866D01*
X28239Y25974D01*
X28167Y26067D01*
X28074Y26139D01*
X27966Y26184D01*
X27850Y26199D01*
D02*
G37*
G36*
X29900D02*
X29784Y26184D01*
X29676Y26139D01*
X29583Y26067D01*
X29511Y25974D01*
X29466Y25866D01*
X29461Y25821D01*
X29339D01*
X29334Y25866D01*
X29289Y25974D01*
X29217Y26067D01*
X29124Y26139D01*
X29016Y26184D01*
X28900Y26199D01*
X28784Y26184D01*
X28676Y26139D01*
X28583Y26067D01*
X28511Y25974D01*
X28466Y25866D01*
X28451Y25750D01*
X28466Y25634D01*
X28511Y25526D01*
X28583Y25433D01*
X28676Y25361D01*
X28784Y25316D01*
X28900Y25301D01*
X29016Y25316D01*
X29124Y25361D01*
X29217Y25433D01*
X29289Y25526D01*
X29334Y25634D01*
X29339Y25679D01*
X29461D01*
X29466Y25634D01*
X29511Y25526D01*
X29583Y25433D01*
X29676Y25361D01*
X29784Y25316D01*
X29900Y25301D01*
X30016Y25316D01*
X30124Y25361D01*
X30217Y25433D01*
X30289Y25526D01*
X30334Y25634D01*
X30349Y25750D01*
X30334Y25866D01*
X30289Y25974D01*
X30217Y26067D01*
X30124Y26139D01*
X30016Y26184D01*
X29900Y26199D01*
D02*
G37*
G36*
X47810Y26374D02*
X47698Y26359D01*
X47593Y26316D01*
X47503Y26247D01*
X47434Y26157D01*
X47391Y26052D01*
X47376Y25940D01*
X47391Y25828D01*
X47434Y25723D01*
X47503Y25633D01*
X47593Y25564D01*
X47698Y25521D01*
X47810Y25506D01*
X47922Y25521D01*
X48027Y25564D01*
X48117Y25633D01*
X48186Y25723D01*
X48229Y25828D01*
X48244Y25940D01*
X48229Y26052D01*
X48186Y26157D01*
X48117Y26247D01*
X48027Y26316D01*
X47922Y26359D01*
X47810Y26374D01*
D02*
G37*
G36*
X20300Y26838D02*
X20166Y26825D01*
X20037Y26786D01*
X19918Y26722D01*
X19813Y26637D01*
X19728Y26532D01*
X19664Y26413D01*
X19625Y26284D01*
X19612Y26150D01*
X19625Y26016D01*
X19664Y25887D01*
X19728Y25768D01*
X19813Y25663D01*
X19918Y25578D01*
X20037Y25514D01*
X20166Y25475D01*
X20300Y25462D01*
X20434Y25475D01*
X20563Y25514D01*
X20682Y25578D01*
X20787Y25663D01*
X20872Y25768D01*
X20936Y25887D01*
X20975Y26016D01*
X20988Y26150D01*
X20975Y26284D01*
X20936Y26413D01*
X20872Y26532D01*
X20787Y26637D01*
X20682Y26722D01*
X20563Y26786D01*
X20434Y26825D01*
X20300Y26838D01*
D02*
G37*
G36*
X44810Y25374D02*
X44698Y25359D01*
X44593Y25316D01*
X44503Y25247D01*
X44434Y25157D01*
X44391Y25052D01*
X44376Y24940D01*
X44391Y24828D01*
X44434Y24723D01*
X44503Y24633D01*
X44593Y24564D01*
X44698Y24521D01*
X44810Y24506D01*
X44922Y24521D01*
X45027Y24564D01*
X45117Y24633D01*
X45186Y24723D01*
X45229Y24828D01*
X45244Y24940D01*
X45229Y25052D01*
X45186Y25157D01*
X45117Y25247D01*
X45027Y25316D01*
X44922Y25359D01*
X44810Y25374D01*
D02*
G37*
G36*
X47810D02*
X47698Y25359D01*
X47593Y25316D01*
X47503Y25247D01*
X47434Y25157D01*
X47391Y25052D01*
X47376Y24940D01*
X47384Y24882D01*
X45353Y22851D01*
X45239Y22907D01*
X45244Y22940D01*
X45229Y23052D01*
X45186Y23157D01*
X45117Y23247D01*
X45027Y23316D01*
X44922Y23359D01*
X44810Y23374D01*
X44698Y23359D01*
X44593Y23316D01*
X44503Y23247D01*
X44434Y23157D01*
X44391Y23052D01*
X44376Y22940D01*
X44391Y22828D01*
X44434Y22723D01*
X44503Y22633D01*
X44593Y22564D01*
X44698Y22521D01*
X44810Y22506D01*
X44843Y22511D01*
X44899Y22397D01*
X43887Y21385D01*
X42335D01*
X42278Y21505D01*
X42311Y21545D01*
X42367Y21649D01*
X42401Y21762D01*
X42413Y21880D01*
X42401Y21998D01*
X42367Y22111D01*
X42311Y22215D01*
X42236Y22306D01*
X42145Y22381D01*
X42041Y22437D01*
X41928Y22471D01*
X41810Y22483D01*
X41692Y22471D01*
X41579Y22437D01*
X41475Y22381D01*
X41384Y22306D01*
X41309Y22215D01*
X41253Y22111D01*
X41219Y21998D01*
X41207Y21880D01*
X41219Y21762D01*
X41253Y21649D01*
X41309Y21545D01*
X41342Y21505D01*
X41285Y21385D01*
X40545D01*
X39866Y22064D01*
X39782Y22120D01*
X39682Y22140D01*
X38351D01*
X38311Y22215D01*
X38236Y22306D01*
X38145Y22381D01*
X38041Y22437D01*
X37928Y22471D01*
X37810Y22483D01*
X37692Y22471D01*
X37579Y22437D01*
X37475Y22381D01*
X37384Y22306D01*
X37309Y22215D01*
X37253Y22111D01*
X37219Y21998D01*
X37207Y21880D01*
X37219Y21762D01*
X37253Y21649D01*
X37309Y21545D01*
X37384Y21454D01*
X37475Y21379D01*
X37579Y21323D01*
X37692Y21289D01*
X37810Y21277D01*
X37928Y21289D01*
X38041Y21323D01*
X38145Y21379D01*
X38236Y21454D01*
X38311Y21545D01*
X38351Y21620D01*
X39575D01*
X40253Y20941D01*
X40338Y20885D01*
X40437Y20865D01*
X43995D01*
X44095Y20885D01*
X44179Y20941D01*
X47267Y24029D01*
X47381Y23973D01*
X47376Y23940D01*
X47391Y23828D01*
X47434Y23723D01*
X47503Y23633D01*
X47593Y23564D01*
X47698Y23521D01*
X47810Y23506D01*
X47922Y23521D01*
X48027Y23564D01*
X48117Y23633D01*
X48186Y23723D01*
X48229Y23828D01*
X48244Y23940D01*
X48229Y24052D01*
X48186Y24157D01*
X48117Y24247D01*
X48027Y24316D01*
X47922Y24359D01*
X47884Y24364D01*
X47878Y24368D01*
X47827Y24492D01*
X47841Y24510D01*
X47922Y24521D01*
X48027Y24564D01*
X48117Y24633D01*
X48186Y24723D01*
X48229Y24828D01*
X48244Y24940D01*
X48229Y25052D01*
X48186Y25157D01*
X48117Y25247D01*
X48027Y25316D01*
X47922Y25359D01*
X47810Y25374D01*
D02*
G37*
G36*
X44810Y24374D02*
X44698Y24359D01*
X44593Y24316D01*
X44503Y24247D01*
X44434Y24157D01*
X44391Y24052D01*
X44376Y23940D01*
X44391Y23828D01*
X44434Y23723D01*
X44503Y23633D01*
X44593Y23564D01*
X44698Y23521D01*
X44810Y23506D01*
X44922Y23521D01*
X45027Y23564D01*
X45117Y23633D01*
X45186Y23723D01*
X45229Y23828D01*
X45244Y23940D01*
X45229Y24052D01*
X45186Y24157D01*
X45117Y24247D01*
X45027Y24316D01*
X44922Y24359D01*
X44810Y24374D01*
D02*
G37*
G36*
X23050Y24613D02*
X22932Y24601D01*
X22819Y24567D01*
X22715Y24511D01*
X22624Y24436D01*
X22549Y24345D01*
X22493Y24241D01*
X22459Y24128D01*
X22447Y24010D01*
X22459Y23892D01*
X22493Y23779D01*
X22549Y23675D01*
X22624Y23584D01*
X22715Y23509D01*
X22819Y23453D01*
X22932Y23419D01*
X23050Y23407D01*
X23168Y23419D01*
X23281Y23453D01*
X23385Y23509D01*
X23476Y23584D01*
X23551Y23675D01*
X23607Y23779D01*
X23641Y23892D01*
X23653Y24010D01*
X23641Y24128D01*
X23607Y24241D01*
X23551Y24345D01*
X23476Y24436D01*
X23385Y24511D01*
X23281Y24567D01*
X23168Y24601D01*
X23050Y24613D01*
D02*
G37*
G36*
X34050Y24203D02*
X33932Y24191D01*
X33819Y24157D01*
X33715Y24101D01*
X33624Y24026D01*
X33549Y23935D01*
X33493Y23831D01*
X33459Y23718D01*
X33447Y23600D01*
X33459Y23482D01*
X33493Y23369D01*
X33549Y23265D01*
X33624Y23174D01*
X33715Y23099D01*
X33819Y23043D01*
X33932Y23009D01*
X34050Y22997D01*
X34168Y23009D01*
X34281Y23043D01*
X34385Y23099D01*
X34476Y23174D01*
X34551Y23265D01*
X34607Y23369D01*
X34641Y23482D01*
X34653Y23600D01*
X34641Y23718D01*
X34607Y23831D01*
X34551Y23935D01*
X34476Y24026D01*
X34385Y24101D01*
X34281Y24157D01*
X34168Y24191D01*
X34050Y24203D01*
D02*
G37*
G36*
X48240Y23370D02*
X47380D01*
Y22510D01*
X48240D01*
Y23370D01*
D02*
G37*
G36*
X35500Y22483D02*
X35382Y22471D01*
X35269Y22437D01*
X35165Y22381D01*
X35074Y22306D01*
X34999Y22215D01*
X34943Y22111D01*
X34909Y21998D01*
X34897Y21880D01*
X34909Y21762D01*
X34943Y21649D01*
X34999Y21545D01*
X35074Y21454D01*
X35165Y21379D01*
X35269Y21323D01*
X35382Y21289D01*
X35500Y21277D01*
X35618Y21289D01*
X35731Y21323D01*
X35835Y21379D01*
X35926Y21454D01*
X36001Y21545D01*
X36057Y21649D01*
X36091Y21762D01*
X36103Y21880D01*
X36091Y21998D01*
X36057Y22111D01*
X36001Y22215D01*
X35926Y22306D01*
X35835Y22381D01*
X35731Y22437D01*
X35618Y22471D01*
X35500Y22483D01*
D02*
G37*
%LPD*%
G54D10*
X31900Y30699D02*
X35900Y34699D01*
X31900Y25750D02*
Y30699D01*
X35900Y34699D02*
Y34750D01*
X36660Y24990D02*
X38050Y23600D01*
X36660Y24990D02*
Y34839D01*
X35390Y36109D02*
X36660Y34839D01*
X35390Y36109D02*
Y39140D01*
X47250Y33830D02*
Y36083D01*
X46700Y36633D02*
X47250Y36083D01*
X46700Y36633D02*
Y36820D01*
X37810Y21880D02*
X39682D01*
X40437Y21125D01*
X43995D01*
X47810Y24940D01*
X38050Y23600D02*
X38746Y24296D01*
X41956D01*
X42580Y24920D01*
G54D12*
X37500Y34350D02*
D03*
G54D13*
X26900Y34750D02*
D03*
X25900D02*
D03*
X24850D02*
D03*
X23900D02*
D03*
X22900D02*
D03*
X21900D02*
D03*
X28900D02*
D03*
X29900D02*
D03*
X30900D02*
D03*
X33900D02*
D03*
X32900D02*
D03*
X31900D02*
D03*
X35900D02*
D03*
X26900Y25750D02*
D03*
X25900D02*
D03*
X24900D02*
D03*
X23900D02*
D03*
X22900D02*
D03*
X21900D02*
D03*
X27850D02*
D03*
X28900D02*
D03*
X29900D02*
D03*
X33900D02*
D03*
X32900D02*
D03*
X31900D02*
D03*
X35900D02*
D03*
G54D14*
X27950Y34750D02*
D03*
X34900D02*
D03*
X30950Y25750D02*
D03*
X34900D02*
D03*
G54D15*
X37500Y26150D02*
D03*
X20300D02*
D03*
Y34350D02*
D03*
G54D16*
X23050Y24010D02*
D03*
X39380Y33190D02*
D03*
X43380D02*
D03*
X42700Y36820D02*
D03*
X46700D02*
D03*
X38050Y23600D02*
D03*
X34050D02*
D03*
X31390Y39140D02*
D03*
X35390D02*
D03*
X39450Y30310D02*
D03*
X43450D02*
D03*
X39390Y31770D02*
D03*
X43390D02*
D03*
X39450Y28800D02*
D03*
X43450D02*
D03*
X37810Y21880D02*
D03*
X41810D02*
D03*
X31500D02*
D03*
X35500D02*
D03*
G54D17*
X42580Y24920D02*
D03*
X40580D02*
D03*
X38050Y37630D02*
D03*
X40050D02*
D03*
X32590Y36850D02*
D03*
X34590D02*
D03*
X40600Y27090D02*
D03*
X42600D02*
D03*
X40720Y35210D02*
D03*
X42720D02*
D03*
G54D18*
X47250Y33830D02*
D03*
Y32830D02*
D03*
Y31830D02*
D03*
X45580Y33850D02*
D03*
Y32850D02*
D03*
Y31850D02*
D03*
G54D19*
X47250Y30830D02*
D03*
X45580Y30850D02*
D03*
G54D20*
X47810Y22940D02*
D03*
G54D21*
Y23940D02*
D03*
Y24940D02*
D03*
Y25940D02*
D03*
Y26940D02*
D03*
Y27940D02*
D03*
Y28940D02*
D03*
X44810D02*
D03*
Y27940D02*
D03*
Y26940D02*
D03*
Y25940D02*
D03*
Y24940D02*
D03*
Y23940D02*
D03*
Y22940D02*
D03*
M02*
